<svg id="americanexpress" data-name="Layer 1" xmlns="http://www.w3.org/2000/svg" xmlns:xlink="http://www.w3.org/1999/xlink" viewBox="0 0 322.52 227.12"><defs><style>.cls-1{fill:#fff;}.cls-2{fill:#006fcf;}.cls-3{mask:url(#mask);}.cls-4{fill:#f7f7f7;}.cls-5{mask:url(#mask-2);}</style><mask id="mask" x="0" y="53.84" width="322.3" height="131.98" maskUnits="userSpaceOnUse"><g id="bluebox-55x54-b"><polygon id="bluebox-55x54-a" class="cls-1" points="0 53.84 0 185.81 322.3 185.81 322.3 53.84 0 53.84"/></g></mask><mask id="mask-2" x="63.57" y="138.68" width="258.95" height="37.97" maskUnits="userSpaceOnUse"><g id="bluebox-55x54-d"><polygon id="bluebox-55x54-c" class="cls-1" points="322.52 176.65 322.52 138.68 63.57 138.68 63.57 176.65 322.52 176.65"/></g></mask></defs><rect class="cls-2" width="322.52" height="227.12" rx="29.88"/><g class="cls-3"><path class="cls-4" d="M282.81,110.14H307V53.84H281.18v9l-5.74-9H252.93V65.22l-5.05-11.38H210.67a34.29,34.29,0,0,0-5.22.39,30.05,30.05,0,0,0-4.19,1,29.39,29.39,0,0,0-3.09,1.18,25.89,25.89,0,0,0-3.34,1.86v-4.4H73.39l-3.31,9.82-3.36-9.82H38.46V65.35l-5.1-11.51h-23L0,77.92v32.22H16.33l3-8.08h5.75l3.1,8.08H153.83V102l6.29,8.19h34.71v-4.09a22.9,22.9,0,0,0,2.78,1.53,26.34,26.34,0,0,0,2.9,1.13,28.09,28.09,0,0,0,3.67.91,32.64,32.64,0,0,0,5.9.52h20.77l3-8.08h5.75l3.09,8.08h34.82v-8.35Zm39.49,72.21V129.52H122.37l-5.1,7.21-5-7.21H54.73v56.29H112l5-7.32,5.15,7.32H158V173.67h-.38a34.67,34.67,0,0,0,12.1-2.14v14.28h25v-8.18l6.3,8.18H309.5a25.44,25.44,0,0,0,8.67-1.48A22.17,22.17,0,0,0,322.3,182.35Z"/></g><g class="cls-5"><path class="cls-2" d="M309.72,169.06H290.25v7.59h19.19c8.2,0,13.08-5,13.08-12.1,0-6.78-4.4-10.73-11.77-10.73H302a3.47,3.47,0,0,1-3.69-3.64,3.56,3.56,0,0,1,3.69-3.8h16.49l3.37-7.7H302.23c-8.19,0-13.07,5-13.07,11.83,0,7,4.61,11,11.83,11h8.73a3.51,3.51,0,0,1,3.74,3.69A3.62,3.62,0,0,1,309.72,169.06Zm-36.13,0H254.12v7.59h19.2c8.19,0,13.08-5,13.08-12.1,0-6.78-4.4-10.73-11.78-10.73h-8.78a3.47,3.47,0,0,1-3.69-3.64,3.56,3.56,0,0,1,3.69-3.8h16.48l3.37-7.7H266.11c-8.19,0-13.08,5-13.08,11.83,0,7,4.62,11,11.83,11h8.73a3.51,3.51,0,0,1,3.74,3.69A3.62,3.62,0,0,1,273.59,169.06Zm-25-22.68v-7.7H218.21v38h30.38V169H227.33v-7.64H248.1v-7.6H227.33v-7.38Zm-50.88.06c3.25,0,5,2.11,5,4.72s-1.74,4.66-5,4.66H187v-9.38ZM187,163h4.29l11.34,13.67H214l-12.63-14c6.45-1.2,10.3-5.86,10.3-11.94,0-7.1-5-12-13.13-12H177.91v38H187Zm-23.21-11.55a4.45,4.45,0,0,1-4.83,4.66h-10.9v-9.32H159C162.18,146.77,163.81,148.82,163.81,151.43ZM139,138.68v38h9.11V164.12h11.44c8.3,0,13.45-5.42,13.45-12.75,0-7.53-5-12.69-13.12-12.69Zm-13.4,38H137L121.72,157.5l15.13-18.82H125.79l-9.33,12-9.28-12H95.79l15.19,19-15.14,19h11.07l9.33-12.2ZM94,146.38v-7.7H63.57v38H94V169H72.69v-7.64H93.46v-7.6H72.69v-7.38Z"/></g><path class="cls-2" d="M270.17,78.25l-.1-3.15L272,78.25,286.5,101h10.63V63h-8.89V85l.11,2.83L286.67,85,272.45,63H261.28v38h8.89Zm-36.33-1.08,2.76-7.11,2.76,7.11,3.37,8.4h-12.2ZM248.91,101h10.25L243,63H231l-16.27,38h9.7l3.21-8.14h18.06Zm-39.76,0h.49l3.74-8.09h-2.76c-6.24,0-9.93-3.9-9.93-10.63v-.54c0-6,3.31-10.52,9.82-10.52h9.87V63H209.75c-11.71,0-18.12,7.86-18.12,18.66v.65C191.63,93.6,198.2,100.92,209.15,101Zm-32.38,0h9.11V63h-9.11v38ZM157.62,70.77c3.26,0,5,2.11,5,4.71s-1.74,4.67-5,4.67H146.94V70.77ZM146.94,87.31h4.28L162.56,101H173.9L161.26,87c6.46-1.19,10.31-5.86,10.31-11.93,0-7.11-5-12-13.13-12H137.83v38h9.11Zm-15.78-16.6V63H100.78v38h30.38V93.22H109.89V85.68h20.78V78.09H109.89V70.71ZM55.6,75.05,55.38,64.8,65.9,101h8.25L84.67,65l-.22,10v26h8.84V63H77.24L70,89.91,62.76,63h-16v38H55.6ZM19.31,77.17l2.77-7.11,2.76,7.11,3.37,8.4H16ZM34.39,101H44.64L28.42,63h-12L.16,101H9.87l3.2-8.14H31.14Z"/></svg>