<svg width="31" height="24" viewBox="0 0 31 24" fill="none" xmlns="http://www.w3.org/2000/svg">
<path fill-rule="evenodd" clip-rule="evenodd" d="M1.83813 23.8769H29.5304C30.0227 23.8769 30.4535 23.4461 30.4535 22.9538V17.8461C30.4535 17.3538 30.0227 16.923 29.5304 16.923H1.83813C1.34582 16.923 0.915054 17.3538 0.915054 17.8461V22.9538C0.915054 23.4461 1.34582 23.8769 1.83813 23.8769ZM1.83813 0.123047C1.34582 0.123047 0.853516 0.553816 0.853516 1.04612V13.6C0.853516 14.0307 1.34582 14.4615 1.83813 14.4615H29.4074C29.8997 14.4615 30.3304 14.0307 30.3304 13.5384V1.04612C30.3304 0.553816 29.8997 0.123047 29.4074 0.123047H1.83813Z" fill="#B0ADAB"/>
</svg>
